<svg width="24" height="25" viewBox="0 0 24 25" fill="none" xmlns="http://www.w3.org/2000/svg">
<path d="M12.0014 8.05675V13.6238M10.6255 1.51002C11.396 0.829993 12.6398 0.829993 13.3882 1.51002L15.1273 3.06602C15.4575 3.35417 16.0849 3.59622 16.5252 3.59622H18.3964C19.5631 3.59622 20.5207 4.59897 20.5207 5.82072V7.78013C20.5207 8.24117 20.7518 8.88662 21.027 9.2324L22.5129 11.0535C23.1624 11.8603 23.1624 13.1627 22.5129 13.9465L21.027 15.7676C20.7518 16.1134 20.5207 16.7588 20.5207 17.2199V19.1793C20.5207 20.401 19.5631 21.4038 18.3964 21.4038H16.5252C16.0849 21.4038 15.4685 21.6458 15.1383 21.934L13.3993 23.49C12.6288 24.17 11.385 24.17 10.6365 23.49L8.89744 21.934C8.56723 21.6458 7.93984 21.4038 7.51057 21.4038H5.58437C4.41764 21.4038 3.46004 20.401 3.46004 19.1793V17.2083C3.46004 16.7588 3.2399 16.1019 2.96473 15.7676L1.4788 13.935C0.8404 13.1397 0.8404 11.8488 1.4788 11.0535L2.96473 9.22087C3.2399 8.87509 3.46004 8.22964 3.46004 7.78013V5.83225C3.46004 4.6105 4.41764 3.60774 5.58437 3.60774H7.48856C7.92883 3.60774 8.54522 3.3657 8.87542 3.07755L10.6255 1.51002Z" stroke="#FF6B00" stroke-width="1.5" stroke-linecap="round" stroke-linejoin="round"/>
<path d="M11.998 17.127H12.0084" stroke="#FF6B00" stroke-width="2" stroke-linecap="round" stroke-linejoin="round"/>
</svg>
