<svg width="18" height="18" viewBox="0 0 18 18" fill="none" xmlns="http://www.w3.org/2000/svg">
<path d="M14.2016 12.637L14.5108 15.1167C14.59 15.768 13.8845 16.2231 13.3216 15.8857L10 13.9318C9.63533 13.9318 9.2786 13.9082 8.92978 13.8612C9.53067 13.1717 9.86249 12.2921 9.86523 11.3815C9.86523 9.15299 7.91506 7.34819 5.5051 7.34819C4.5855 7.34819 3.73726 7.60714 3.03171 8.06226C3.00793 7.86609 3 7.66991 3 7.46589C3 3.89553 6.13137 1 10 1C13.8686 1 17 3.89553 17 7.46589C17 9.58457 15.8981 11.46 14.2016 12.637Z" stroke="#8E8D9C" stroke-linecap="round" stroke-linejoin="round"/>
<path d="M10 11.3154C10 12.3145 9.64 13.238 9.03454 13.9685C8.22454 14.9759 6.94 15.6224 5.5 15.6224L3.36455 16.9237C3.00455 17.1504 2.54636 16.8398 2.59545 16.4116L2.8 14.7577C1.70364 13.9768 1 12.7259 1 11.3154C1 9.83776 1.76909 8.53642 2.94727 7.76401C3.67545 7.27706 4.55091 7 5.5 7C7.98727 7 10 8.93102 10 11.3154Z" stroke="#8E8D9C" stroke-linecap="round" stroke-linejoin="round"/>
</svg>
