<svg width="22" height="22" viewBox="0 0 22 22" fill="none" xmlns="http://www.w3.org/2000/svg">
<path d="M16.8001 1.09951L6.87009 3.58951C5.42009 3.94951 3.95009 5.41951 3.59009 6.86951L1.10009 16.7995C0.350092 19.7995 2.19009 21.6495 5.20009 20.8995L15.1301 18.4195C16.5701 18.0595 18.0501 16.5795 18.4101 15.1395L20.9001 5.19951C21.6501 2.19951 19.8001 0.349513 16.8001 1.09951Z" stroke="white" stroke-linecap="round" stroke-linejoin="round"/>
<path d="M11 14.5C11.4596 14.5 11.9148 14.4095 12.3394 14.2336C12.764 14.0577 13.1499 13.7999 13.4749 13.4749C13.7999 13.1499 14.0577 12.764 14.2336 12.3394C14.4095 11.9148 14.5 11.4596 14.5 11C14.5 10.5404 14.4095 10.0852 14.2336 9.66061C14.0577 9.23597 13.7999 8.85013 13.4749 8.52513C13.1499 8.20012 12.764 7.94231 12.3394 7.76642C11.9148 7.59053 11.4596 7.5 11 7.5C10.0717 7.5 9.1815 7.86875 8.52513 8.52513C7.86875 9.1815 7.5 10.0717 7.5 11C7.5 11.9283 7.86875 12.8185 8.52513 13.4749C9.1815 14.1313 10.0717 14.5 11 14.5Z" stroke="white" stroke-linecap="round" stroke-linejoin="round"/>
</svg>
