<svg width="45" height="45" viewBox="0 0 45 45" fill="none" xmlns="http://www.w3.org/2000/svg">
<rect width="45" height="45" rx="22.5" fill="#FDF6E3"/>
<path d="M28.8128 18V18.5C28.7128 20 28.0128 21.3 27.1128 22.2C26.0128 23.3 24.5128 24 22.8128 24H19.7128C19.2128 24 18.8128 24.4 18.7128 24.9L17.9128 30.2C17.8128 30.6 17.6128 30.9 17.2128 31H15.0128C14.4128 31 13.9128 30.5 14.0128 29.8L16.4128 15.5C16.6128 14.1 17.9128 13 19.3128 13H23.8128C26.6128 13 28.8128 15.2 28.8128 18Z" stroke="#FF6B00" stroke-miterlimit="10"/>
<path d="M30.8128 22C30.8128 23.4 30.2128 24.6 29.3128 25.5C28.4128 26.4 27.2128 27 25.8128 27H23.7128C23.2128 27 22.8128 27.3 22.7128 27.8L22.0128 32.1C21.9128 32.6 21.5128 32.9 21.0128 32.9H18.0128C17.4128 32.9 16.9128 32.3 17.0128 31.7L17.2128 31C17.6128 30.9 17.9128 30.6 17.9128 30.2L18.7128 24.9C18.8128 24.4 19.2128 24 19.7128 24H22.8128C24.5128 24 26.0128 23.3 27.0128 22.2C28.0128 21.2 28.6128 19.9 28.7128 18.5C30.0128 19.2 30.8128 20.5 30.8128 22Z" stroke="#FF6B00" stroke-miterlimit="10"/>
</svg>
