<svg width="45" height="45" viewBox="0 0 45 45" fill="none" xmlns="http://www.w3.org/2000/svg">
<rect width="45" height="45" rx="22.5" fill="#FDF6E3"/>
<path d="M22.5052 18.0375V23.55M32 18.909V26.091C32 27.267 31.3726 28.359 30.3583 28.9575L24.1469 32.559C23.1326 33.147 21.8778 33.147 20.8531 32.559L14.6417 28.9575C14.1416 28.6664 13.7267 28.2482 13.4385 27.745C13.1503 27.2419 12.9991 26.6714 13 26.091V18.909C13 17.733 13.6274 16.641 14.6417 16.0425L20.8531 12.441C21.8674 11.853 23.1222 11.853 24.1469 12.441L30.3583 16.0425C31.3726 16.641 32 17.7225 32 18.909Z" stroke="#FF6B00" stroke-linecap="round" stroke-linejoin="round"/>
<path d="M22.5054 26.9092V27.0142" stroke="#FF6B00" stroke-width="2" stroke-linecap="round" stroke-linejoin="round"/>
</svg>
