<svg width="45" height="45" viewBox="0 0 45 45" fill="none" xmlns="http://www.w3.org/2000/svg">
<rect width="45" height="45" rx="22.5" fill="#FDF6E3"/>
<path d="M29.625 22.9688C29.625 22.3471 29.8752 21.751 30.3206 21.3115C30.766 20.8719 31.3701 20.625 32 20.625V19.6875C32 15.9375 31.05 15 27.25 15H17.75C13.95 15 13 15.9375 13 19.6875V20.1562C13.6299 20.1562 14.234 20.4032 14.6794 20.8427C15.1248 21.2823 15.375 21.8784 15.375 22.5C15.375 23.1216 15.1248 23.7177 14.6794 24.1573C14.234 24.5968 13.6299 24.8438 13 24.8438V25.3125C13 29.0625 13.95 30 17.75 30H27.25C31.05 30 32 29.0625 32 25.3125C31.3701 25.3125 30.766 25.0656 30.3206 24.626C29.8752 24.1865 29.625 23.5904 29.625 22.9688Z" stroke="#FF6B00" stroke-linecap="round" stroke-linejoin="round"/>
<path d="M21.0386 15V30" stroke="#FF6B00" stroke-linecap="round" stroke-linejoin="round" stroke-dasharray="5 5"/>
</svg>
