<svg width="45" height="45" viewBox="0 0 45 45" fill="none" xmlns="http://www.w3.org/2000/svg">
<rect width="45" height="45" rx="22.5" fill="#FDF6E3"/>
<path d="M32.0594 24.7588C32.0594 28.2593 29.2668 31.0905 25.8141 31.0905L26.7509 29.5075M14.2158 19.3317C14.2158 15.8312 17.0083 13 20.4611 13L19.5243 14.5829M32.0594 15.8492V19.196C32.0594 21.2312 31.2564 22.0452 29.249 22.0452H26.8401C24.8327 22.0452 24.0298 21.2312 24.0298 19.196V15.8492C24.0298 13.8141 24.8327 13 26.8401 13H29.249C31.2564 13 32.0594 13.8141 32.0594 15.8492ZM22.2454 24.8945V28.2412C22.2454 30.2764 21.4425 31.0905 19.4351 31.0905H17.0262C15.0188 31.0905 14.2158 30.2764 14.2158 28.2412V24.8945C14.2158 22.8593 15.0188 22.0452 17.0262 22.0452H19.4351C21.4425 22.0452 22.2454 22.8593 22.2454 24.8945Z" stroke="#FF6B00" stroke-linecap="round" stroke-linejoin="round"/>
</svg>
