<svg width="18" height="22" viewBox="0 0 18 22" fill="none" xmlns="http://www.w3.org/2000/svg">
<path d="M9.02009 1.91016C5.71009 1.91016 3.02009 4.60016 3.02009 7.91016V10.8002C3.02009 11.4102 2.76009 12.3402 2.45009 12.8602L1.30009 14.7702C0.590088 15.9502 1.08009 17.2602 2.38009 17.7002C6.69009 19.1402 11.3401 19.1402 15.6501 17.7002C16.8601 17.3002 17.3901 15.8702 16.7301 14.7702L15.5801 12.8602C15.2801 12.3402 15.0201 11.4102 15.0201 10.8002V7.91016C15.0201 4.61016 12.3201 1.91016 9.02009 1.91016Z" stroke="#FF6B00" stroke-miterlimit="10" stroke-linecap="round"/>
<path d="M10.8699 2.20043C9.66063 1.85602 8.37921 1.85602 7.16992 2.20043C7.45992 1.46043 8.17992 0.94043 9.01992 0.94043C9.85992 0.94043 10.5799 1.46043 10.8699 2.20043Z" stroke="#FF6B00" stroke-miterlimit="10" stroke-linecap="round" stroke-linejoin="round"/>
<path d="M12.02 18.0596C12.02 19.7096 10.67 21.0596 9.02002 21.0596C8.20002 21.0596 7.44002 20.7196 6.90002 20.1796C6.33818 19.6169 6.02181 18.8547 6.02002 18.0596" stroke="#FF6B00" stroke-miterlimit="10"/>
</svg>
