<svg width="34" height="34" viewBox="0 0 34 34" fill="none" xmlns="http://www.w3.org/2000/svg">
<rect width="34" height="34" rx="4" fill="#EFE5C9"/>
<path d="M24 24L22.6 22.6M16.65 23.3C17.5233 23.3 18.388 23.128 19.1948 22.7938C20.0017 22.4596 20.7348 21.9698 21.3523 21.3523C21.9698 20.7348 22.4596 20.0017 22.7938 19.1948C23.128 18.388 23.3 17.5233 23.3 16.65C23.3 15.7767 23.128 14.912 22.7938 14.1052C22.4596 13.2983 21.9698 12.5652 21.3523 11.9477C20.7348 11.3302 20.0017 10.8404 19.1948 10.5062C18.388 10.172 17.5233 10 16.65 10C14.8863 10 13.1949 10.7006 11.9477 11.9477C10.7006 13.1949 10 14.8863 10 16.65C10 18.4137 10.7006 20.1051 11.9477 21.3523C13.1949 22.5994 14.8863 23.3 16.65 23.3Z" stroke="#FF6B00" stroke-linecap="round" stroke-linejoin="round"/>
</svg>
