<svg width="20" height="22" viewBox="0 0 20 22" fill="none" xmlns="http://www.w3.org/2000/svg">
<path d="M17 11V5C17 2.79 17 1 13 1H7C3 1 3 2.79 3 5V11M5 11C1 11 1 12.79 1 15V16C1 18.76 1 21 6 21H14C18 21 19 18.76 19 16V15C19 12.79 19 11 15 11C14 11 13.72 11.21 13.2 11.6L12.18 12.68C11.8996 12.9783 11.561 13.216 11.1853 13.3785C10.8095 13.541 10.4044 13.6248 9.995 13.6248C9.58559 13.6248 9.18052 13.541 8.80474 13.3785C8.42896 13.216 8.09043 12.9783 7.81 12.68L6.8 11.6C6.28 11.21 6 11 5 11Z" stroke="#FF6B00" stroke-width="1.2" stroke-miterlimit="10" stroke-linecap="round" stroke-linejoin="round"/>
<path d="M8.55021 8.23047H11.8802M7.72021 5.23047H12.7202" stroke="#FF6B00" stroke-width="1.2" stroke-linecap="round" stroke-linejoin="round"/>
</svg>
